<?xml version="1.0" encoding="utf-8"?>
<!-- Generator: Adobe Illustrator 25.4.1, SVG Export Plug-In . SVG Version: 6.00 Build 0)  -->
<svg version="1.1" id="Capa_1" xmlns="http://www.w3.org/2000/svg" xmlns:xlink="http://www.w3.org/1999/xlink" x="0px" y="0px"
	 viewBox="0 0 48 48" style="enable-background:new 0 0 48 48;" xml:space="preserve">
<style type="text/css">
	.st0{fill:#F4E6CC;}
	.st1{fill:#F5E6CC;}
	.st2{fill:#FFFFFF;}
</style>
<path class="st0" d="M15.9,3.8c-4.5,0-8.1,3.6-8.1,8.1c0,4.5,3.6,8.1,8.1,8.1c4.5,0,8.1-3.6,8.1-8.1C24,7.4,20.4,3.8,15.9,3.8z
	 M9,10.8c0-1.2,1-2.2,2.2-2.2c1.2,0,2.2,1,2.2,2.2c0,1.2-1,2.2-2.2,2.2C10,13,9,12.1,9,10.8z M13.6,18c-1.2,0-2.2-1-2.2-2.2
	c0-1.2,1-2.2,2.2-2.2c1.2,0,2.2,1,2.2,2.2C15.8,17.1,14.8,18,13.6,18z M15.1,9.2c-1.2,0-2.2-1-2.2-2.2c0-1.2,1-2.2,2.2-2.2
	c1.2,0,2.2,1,2.2,2.2C17.3,8.2,16.3,9.2,15.1,9.2z M19.1,17.1c-1.2,0-2.2-1-2.2-2.2c0-1.2,1-2.2,2.2-2.2c1.2,0,2.2,1,2.2,2.2
	C21.3,16.2,20.3,17.1,19.1,17.1z M20,11.7c-1.2,0-2.2-1-2.2-2.2c0-1.2,1-2.2,2.2-2.2c1.2,0,2.2,1,2.2,2.2
	C22.2,10.8,21.2,11.7,20,11.7z"/>
<path class="st0" d="M31,0c-4.5,0-8.1,3.6-8.1,8.1c0,4.5,3.6,8.1,8.1,8.1c4.5,0,8.1-3.6,8.1-8.1C39.1,3.6,35.5,0,31,0z M24.1,7.1
	c0-1.2,1-2.2,2.2-2.2c1.2,0,2.2,1,2.2,2.2c0,1.2-1,2.2-2.2,2.2C25.1,9.3,24.1,8.3,24.1,7.1z M28.7,14.3c-1.2,0-2.2-1-2.2-2.2
	c0-1.2,1-2.2,2.2-2.2c1.2,0,2.2,1,2.2,2.2C30.9,13.3,29.9,14.3,28.7,14.3z M30.2,5.4c-1.2,0-2.2-1-2.2-2.2C28,2,29,1,30.2,1
	c1.2,0,2.2,1,2.2,2.2C32.4,4.4,31.4,5.4,30.2,5.4z M34.2,13.4c-1.2,0-2.2-1-2.2-2.2C32,10,33,9,34.2,9c1.2,0,2.2,1,2.2,2.2
	C36.4,12.4,35.4,13.4,34.2,13.4z M35.1,8c-1.2,0-2.2-1-2.2-2.2c0-1.2,1-2.2,2.2-2.2c1.2,0,2.2,1,2.2,2.2C37.3,7,36.3,8,35.1,8z"/>
<path class="st1" d="M40.3,18.4v-6.3h-4.1c-0.3,0.8-1.1,1.3-2,1.3s-1.7-0.5-2-1.3h-1.3c0,1.2-1,2.1-2.2,2.1c-1.2,0-2.2-1-2.2-2.1
	h-10V48h7.7V33h14.4v-6.4H24.2v-8.2H40.3z M19.1,17.1c-1.2,0-2.2-1-2.2-2.2c0-1.2,1-2.2,2.2-2.2c1.2,0,2.2,1,2.2,2.2
	C21.3,16.2,20.3,17.1,19.1,17.1z"/>
<path class="st2" d="M40.3,18.4"/>
</svg>
